<svg width="146" height="20" fill="none" xmlns="http://www.w3.org/2000/svg"><g clip-path="url('#a')"><mask id="b" style="mask-type:luminance" maskUnits="userSpaceOnUse" x="19" y="1" width="19" height="18"><path d="M37.1 9.908a8.601 8.601 0 1 0-17.202 0 8.601 8.601 0 0 0 17.203 0Z" fill="#fff"/></mask><g mask="url('#b')"><path d="M37.102 9.908a8.601 8.601 0 1 0-17.202 0 8.601 8.601 0 0 0 17.202 0Z" fill="#7F5FFF"/><path d="M37.315 5.816C35.91 3.96 32.153 1.78 28.74 2.5c-.911.192-.803.64-1.082 1.065-.387.589-1.535.83-1.619 1.102-.118.39.448 1.06.771 1.18.516.19.966-.65 1.607-.753.636-.103 3.002.113 3.397.74.587.653.52 1.71.168 1.857-.377.158-1.249-.716-1.846-.649-.337.039-.993.47-1.38.425-.335-.039-.553-.753-.844-.962-.265-.19-1.766.138-2.153.313-.47.212-1.537 1.723-1.566 2.267-.034.632 1.253 1.907 1.773 2.008.546.105 1.512-.393 1.853-.158.407.283.854 5.07 1.745 5.077.565.004 2.109-2.105 2.35-2.515.339-.578.132-1.498.25-1.815.15-.397 1.088-.92 1.124-1.34.035-.377-1.229-1.462-.916-1.686.248-.178 1.58.461 2.014.194.37-.229.384-1.378.859-2.24a.514.514 0 0 1 .449-.268c.448 0 .943.3 1.484 2.494.116.438.893-.57.893-.57l-.755-2.45v-.001ZM33.351 13.042c-.259-.067-.558.601-.645.854-.077.233-.23.897 0 .981.28.101.673-.632.758-.917.064-.222.112-.86-.112-.916M19.952 10.874c.382 1.171 1.875.822 2.134 1.605.29.882-.71 1.723-.089 3.06-1.281 1.258-2.713-1.962-2.713-1.962l.668-2.7v-.003Z" fill="#FEE14A"/></g></g><path d="M18.333 9.683a8.601 8.601 0 1 0-17.203 0 8.601 8.601 0 0 0 17.203 0Z" fill="#FF5600"/><path d="M11 5.9h-.87c-1.492 0-2.239.746-2.239 1.866 0 1.243.498 1.865 1.617 2.611l.87.622-2.487 3.855h-1.99l2.363-3.482C6.896 10.377 6.15 9.507 6.15 7.89c0-1.99 1.368-3.358 3.98-3.358h2.611v10.322h-1.74V5.9Z" fill="#fff"/><path d="M42.41 2.865h8.95v13.582h-2.364V4.702h-4.22v11.745H42.41V2.865ZM54.559 19.476c-.456 0-.782-.059-.977-.176l-.294-.156v-1.896c.13.13.287.228.47.293.182.065.377.098.586.098.325 0 .586-.072.781-.215a1.54 1.54 0 0 0 .489-.547l-3.38-10.26h2.442l2.17 7.387 2.168-7.387h2.248l-3.069 9.302c-.325 1.003-.742 1.844-1.25 2.521-.508.69-1.303 1.036-2.384 1.036ZM69.546 8.454H66.81v7.993h-2.326V8.454H61.75V6.617h7.797v1.837ZM77.758 15.783c-.338.234-.781.436-1.329.605-.547.17-1.192.254-1.934.254-1.473 0-2.619-.416-3.44-1.25-.807-.847-1.211-2.124-1.211-3.83 0-.743.084-1.427.254-2.052.17-.639.423-1.18.762-1.622a3.749 3.749 0 0 1 1.31-1.075c.533-.26 1.152-.391 1.856-.391 1.16 0 2.084.358 2.775 1.075.703.716 1.055 1.928 1.055 3.635v1.23h-5.609c.052.821.26 1.434.626 1.838.364.404.97.605 1.817.605a5.4 5.4 0 0 0 1.68-.273c.561-.183 1.023-.398 1.388-.645v1.896Zm-3.771-7.524c-.56 0-.984.202-1.27.606-.287.403-.444.996-.47 1.778h3.244v-.196c0-.612-.11-1.126-.332-1.543-.208-.43-.6-.645-1.172-.645ZM79.414 16.447v-9.83h2.325v7.993h2.54V6.617h2.326v7.993h2.54V6.617h2.326v9.83H79.414ZM100.947 15.783c-.339.234-.782.436-1.33.605-.546.17-1.191.254-1.934.254-1.472 0-2.618-.416-3.44-1.25-.807-.847-1.21-2.124-1.21-3.83 0-.743.084-1.427.253-2.052.17-.639.424-1.18.762-1.622a3.749 3.749 0 0 1 1.31-1.075c.534-.26 1.153-.391 1.856-.391 1.16 0 2.085.358 2.775 1.075.704.716 1.056 1.928 1.056 3.635v1.23h-5.61c.053.821.261 1.434.626 1.838.365.404.97.605 1.818.605.56 0 1.12-.09 1.68-.273.56-.183 1.023-.398 1.388-.645v1.896Zm-3.772-7.524c-.56 0-.983.202-1.27.606-.287.403-.443.996-.47 1.778h3.245v-.196c0-.612-.11-1.126-.332-1.543-.209-.43-.6-.645-1.173-.645ZM106.9 16.642c-1.551 0-2.71-.443-3.479-1.329-.755-.885-1.133-2.143-1.133-3.771 0-.743.098-1.427.293-2.052.195-.638.475-1.18.84-1.622a3.788 3.788 0 0 1 1.407-1.055c.574-.26 1.231-.391 1.974-.391.573 0 1.068.045 1.485.137.43.09.769.202 1.016.332v1.974c-.234-.144-.56-.28-.977-.41a4.11 4.11 0 0 0-1.27-.196c-.755 0-1.342.273-1.759.82-.404.548-.605 1.349-.605 2.404 0 1.016.182 1.824.547 2.423.377.6.977.9 1.798.9.482 0 .905-.06 1.27-.176.378-.118.71-.28.996-.489v1.896a2.774 2.774 0 0 1-1.016.45 5.432 5.432 0 0 1-1.387.155ZM117.981 8.454h-2.736v7.993h-2.326V8.454h-2.736V6.617h7.798v1.837ZM123.227 16.447h-3.87v-9.83h3.909c1.068 0 1.876.209 2.423.626.56.416.84 1.042.84 1.876 0 .586-.156 1.068-.469 1.446-.312.364-.73.619-1.25.762.651.117 1.159.365 1.524.742.378.378.567.886.567 1.525 0 .938-.326 1.648-.978 2.13-.651.482-1.55.723-2.696.723Zm-.293-8.071h-1.251v2.189h1.172c.443 0 .782-.098 1.016-.293.248-.196.372-.463.372-.802 0-.364-.117-.638-.352-.82-.221-.183-.54-.274-.957-.274Zm.039 3.889h-1.29v2.423h1.29c.468 0 .84-.098 1.114-.293.273-.195.41-.515.41-.958 0-.403-.13-.697-.391-.88-.26-.194-.638-.292-1.133-.292ZM128.46 6.617h2.267v6.078l3.595-6.078h2.013v9.83h-2.266v-6.078l-3.596 6.078h-2.013v-9.83ZM137.604 16.447l2.208-3.713c-.625-.209-1.108-.547-1.446-1.016-.339-.482-.508-1.095-.508-1.837 0-1.056.365-1.863 1.094-2.424.73-.56 1.661-.84 2.795-.84h3.556v9.83h-2.325v-3.205h-1.114l-1.876 3.205h-2.384Zm4.318-7.993c-.507 0-.918.117-1.23.352-.313.234-.47.619-.47 1.153 0 .56.144.964.43 1.212.287.247.691.37 1.212.37h1.114V8.455h-1.056Z" fill="#000"/><defs><clipPath id="a"><path fill="#fff" transform="translate(19.115 .524)" d="M0 0h18.767v18.767H0z"/></clipPath></defs></svg>