<svg width="197" height="34" viewBox="0 0 197 34" fill="none" xmlns="http://www.w3.org/2000/svg">
<g clip-path="url('#clip0_526_3954')">
<path d="M196.232 25.3076H47.29V27.5354H196.232V25.3076Z" fill="url('#paint0_linear_526_3954')"></path>
<path d="M16.6299 33.2597C25.8143 33.2597 33.2597 25.8143 33.2597 16.6299C33.2597 7.44544 25.8143 0 16.6299 0C7.44544 0 0 7.44544 0 16.6299C0 25.8143 7.44544 33.2597 16.6299 33.2597Z" fill="#3A3A3C"></path>
<path d="M111.93 4.63379C112.084 4.89754 112.166 5.19731 112.169 5.50281C112.17 5.8083 112.09 6.10871 111.937 6.37369C111.785 6.63867 111.564 6.85884 111.299 7.01195C111.034 7.16505 110.733 7.24567 110.427 7.24567C110.12 7.24567 109.819 7.16505 109.554 7.01195C109.288 6.85884 109.069 6.63867 108.916 6.37369C108.763 6.10871 108.684 5.8083 108.685 5.50281C108.686 5.19731 108.768 4.89754 108.923 4.63379H111.93ZM52.137 14.7136C51.2342 15.2036 50.2322 15.4844 49.2055 15.5352C47.0053 15.5352 45.4844 14.378 45.4844 11.8262V7.77576H47.9341V11.1087C47.9341 12.4801 48.474 13.2554 49.7221 13.2554C50.5854 13.2744 51.4333 13.0258 52.1486 12.5437V7.78154H54.5868V18.8334H52.1486L52.137 14.7136ZM57.2339 7.76997H65.6108V9.93405H59.6721V12.1965H64.8967V14.3606H59.6721V16.6751H65.6862V18.8334H57.2456L57.2339 7.76997ZM67.8458 7.76997H72.3737C75.0209 7.76997 76.6174 9.33807 76.6174 11.6236C76.6174 14.1812 74.6262 15.5063 72.1357 15.5063H70.2956V18.8218H67.8574L67.8458 7.76997ZM72.2286 13.3538C73.4477 13.3538 74.1618 12.6246 74.1618 11.6179C74.1618 10.53 73.4012 9.94562 72.1822 9.94562H70.2956V13.3538H72.2286ZM78.4343 7.77576H80.9073V12.1503H85.4005V7.78154H87.8155V18.8334H85.3715V14.401H80.9073V18.8334H78.4343V7.77576ZM90.4742 7.77576H92.9124V11.5368H95.2693C97.8352 11.5368 99.3328 12.9545 99.3328 15.1186C99.3328 17.3926 97.7191 18.8276 95.1183 18.8276H90.4742V7.77576ZM92.9124 13.6199V16.6345H95.0835C96.2851 16.6345 96.9063 16.1138 96.9063 15.0896C96.9063 14.158 96.2852 13.6199 95.0661 13.6199H92.9124ZM100.564 7.77576H103.002V18.8276H100.564V7.77576ZM115.21 18.8276H112.836V11.6179L107.959 18.8334H105.637V7.78154H108.046V15.0318L112.922 7.78154H115.186L115.21 18.8276ZM128.939 18.8276V15.8997L127.47 14.3201L124.347 18.8334H121.445L125.834 12.5668L121.601 7.78154H124.503L128.95 12.9487V7.78154H131.377V12.9487L135.824 7.78154H138.726L134.495 12.5668L138.884 18.8334H135.98L132.846 14.3201L131.389 15.8997V18.8334L128.939 18.8276ZM140.341 7.77576H148.705V9.93983H142.767V12.1965H147.991V14.3606H142.767V16.6751H148.786V18.8334H140.341V7.77576ZM150.953 7.77576H153.582L156.485 12.4511L159.387 7.77576H162.017V18.8276H159.596V11.6179L156.473 16.3337H156.41L153.321 11.6641V18.8334H150.929L150.953 7.77576ZM171.131 14.7193C170.237 15.2052 169.246 15.486 168.228 15.541C166.028 15.541 164.507 14.3838 164.507 11.832V7.78154H166.945V11.1144C166.945 12.4858 167.485 13.2611 168.739 13.2611C169.6 13.2802 170.446 13.0314 171.16 12.5495V7.78154H173.598V18.8334H171.16L171.131 14.7193ZM183.595 7.77576H186.241L181.981 16.3221C181.012 18.2432 179.902 19.0012 178.352 19.0012C177.512 19.0069 176.685 18.7849 175.961 18.359L176.913 16.5709C177.307 16.8143 177.761 16.9406 178.225 16.9354C178.515 16.9231 178.797 16.8348 179.041 16.6793C179.286 16.5239 179.484 16.3068 179.618 16.0502L175.182 7.77576H177.911L180.919 13.6199L183.595 7.77576ZM190.293 18.8276H187.855V7.78154H195.599V9.98034H190.293V18.8276Z" fill="white"></path>
<path d="M19.3086 0.207065C16.05 -0.310313 12.7108 0.147009 9.71297 1.5212C6.71518 2.8954 4.19351 5.12476 2.46681 7.92738C0.740103 10.73 -0.11409 13.9801 0.0122353 17.2666C0.138561 20.5531 1.23973 23.7284 3.17651 26.3911C5.11329 29.0538 7.79869 31.0843 10.8932 32.2259C13.9877 33.3674 17.3523 33.5687 20.5615 32.8044C23.7708 32.04 26.6806 30.3443 28.923 27.9316C31.1655 25.5188 32.6398 22.4976 33.1596 19.2498C33.5048 17.0928 33.4205 14.8893 32.9112 12.765C32.4018 10.6405 31.4777 8.63695 30.1915 6.86861C28.9052 5.10027 27.2822 3.60181 25.4149 2.45881C23.5475 1.31581 21.4726 0.550661 19.3086 0.207065ZM2.14273 14.3141C2.49011 12.1344 3.32742 10.0612 4.59206 8.24955C5.85669 6.43792 7.51591 4.93473 9.4456 3.85244C8.07957 5.34708 7.2381 7.24389 7.04809 9.25686C6.90621 10.6228 7.07467 12.003 7.54097 13.2951C8.00727 14.5874 8.75942 15.7583 9.74167 16.7212C12.6037 19.5044 17.062 21.2635 21.1372 19.273C25.0847 17.3519 25.5027 11.5077 21.5841 8.74187C19.1344 7.00598 15.0766 7.03491 14.1362 9.58088C13.9238 10.2805 13.9578 11.0313 14.2323 11.7091C14.5068 12.3868 15.0055 12.9507 15.6455 13.3072C18.2172 14.8175 20.7656 12.6592 19.3027 10.6282C20.5915 11.0622 21.7525 12.7865 21.172 14.7944C20.3013 17.8148 16.3305 18.8911 12.9693 16.7791C8.57484 14.0247 8.74899 8.27318 11.2858 5.47261C15.3088 1.01715 21.7351 1.88509 25.729 5.01549C31.5342 9.55774 31.4122 16.9585 27.8653 20.7311C26.9142 21.7107 25.7635 22.4758 24.4908 22.9749C23.2181 23.4739 21.8528 23.6953 20.487 23.6243C15.0592 23.4275 11.6458 18.9258 8.24975 17.1783C6.3863 16.2005 3.48372 15.7838 2.01502 17.5602C1.93389 16.4769 1.97672 15.3878 2.14273 14.3141ZM4.59831 25.013C8.48776 26.2859 10.0668 24.2897 9.31209 22.8257C11.0827 24.3129 11.251 28.5773 14.3046 31.1117C12.3591 30.7958 10.4972 30.0931 8.82973 29.0454C7.16227 27.9976 5.72327 26.6263 4.59831 25.013ZM22.333 30.1686C22.4756 29.9186 22.5633 29.6413 22.5903 29.355C22.6174 29.0688 22.5831 28.78 22.4898 28.5079C22.31 28.0648 21.9632 27.7093 21.5238 27.518C21.0843 27.3265 20.5871 27.3142 20.1386 27.4837C19.5233 27.6516 18.9138 28.2649 19.1111 28.9129C19.3086 29.561 20.2141 29.7809 20.9746 29.3469C21.0559 30.0875 20.365 30.8629 19.2853 31.0076C17.5961 31.2332 15.9938 30.0298 14.5658 28.1144C13.4685 26.6679 12.6559 24.7642 11.7038 23.4159C10.8737 22.2587 9.24243 20.1525 7.19321 20.4765C6.88632 20.5054 6.59761 20.6345 6.37192 20.8438C6.14622 21.0531 5.99618 21.3308 5.94511 21.6338C5.95922 21.8782 6.06378 22.1088 6.23856 22.2809C6.41334 22.453 6.64593 22.5543 6.89135 22.5654C7.05854 22.6011 7.2322 22.5927 7.39513 22.541C7.55806 22.4892 7.70458 22.3959 7.82017 22.2703C7.89547 22.388 7.94611 22.5196 7.96906 22.6574C7.99201 22.7951 7.98679 22.936 7.95372 23.0717C7.92063 23.2073 7.86039 23.3349 7.77659 23.4468C7.69278 23.5586 7.58716 23.6525 7.46605 23.7226C5.76515 24.6542 3.07156 23.1035 2.671 20.8295C2.29367 18.6306 4.59251 17.3577 7.23965 18.434C11.9999 20.3955 13.8866 25.7478 20.7889 26.257C22.7675 26.4082 24.7488 25.9998 26.5049 25.0785C28.261 24.1573 29.7205 22.7606 30.7157 21.0493C30.0682 23.0858 28.9827 24.9568 27.5349 26.5318C26.087 28.1069 24.3119 29.348 22.333 30.1686Z" fill="url('#paint1_linear_526_3954')"></path>
</g>
<defs>
<linearGradient id="paint0_linear_526_3954" x1="47.287" y1="26.4141" x2="196.214" y2="26.4141" gradientUnits="userSpaceOnUse">
<stop stop-color="#F9DCBC"></stop>
<stop offset="0.178" stop-color="#FEF9E9"></stop>
<stop offset="0.4427" stop-color="#FADEB9"></stop>
<stop offset="0.5281" stop-color="#F5D6AC"></stop>
<stop offset="0.5754" stop-color="#E6BA93"></stop>
<stop offset="0.6242" stop-color="#DCAF82"></stop>
<stop offset="0.6737" stop-color="#D2A47A"></stop>
<stop offset="0.6996" stop-color="#D9AD7A"></stop>
<stop offset="0.8182" stop-color="#EED6B5"></stop>
<stop offset="0.9565" stop-color="#FCEBD5"></stop>
</linearGradient>
<linearGradient id="paint1_linear_526_3954" x1="4.33e-08" y1="1.12067e-08" x2="43.1506" y2="11.1681" gradientUnits="userSpaceOnUse">
<stop stop-color="#FFBE77"></stop>
<stop offset="0.1875" stop-color="#FFECD2"></stop>
<stop offset="0.4427" stop-color="#FADEB9"></stop>
<stop offset="0.65625" stop-color="#D2A47A"></stop>
<stop offset="0.9565" stop-color="#FCEBD5"></stop>
</linearGradient>
<clipPath id="clip0_526_3954">
<rect width="196.232" height="33.2597" fill="white"></rect>
</clipPath>
</defs>
</svg>
