<svg width="217" height="29" fill="none" xmlns="http://www.w3.org/2000/svg"><mask id="a" style="mask-type:luminance" maskUnits="userSpaceOnUse" x="29" y="1" width="27" height="26"><path d="M55.068 14.043c0-7.11-5.764-12.873-12.873-12.873-7.11 0-12.873 5.763-12.873 12.873 0 7.109 5.764 12.872 12.873 12.872 7.11 0 12.873-5.763 12.873-12.872Z" fill="#fff"/></mask><g mask="url('#a')"><path d="M55.07 14.043c0-7.111-5.764-12.873-12.872-12.873S29.325 6.935 29.325 14.043c0 7.107 5.762 12.872 12.873 12.872 7.11 0 12.872-5.765 12.872-12.872Z" fill="#7F5FFF"/><path d="M55.389 7.919c-2.104-2.778-7.725-6.04-12.835-4.962-1.364.289-1.203.96-1.62 1.595-.578.881-2.297 1.243-2.422 1.65-.177.583.67 1.585 1.154 1.765.772.284 1.445-.972 2.404-1.127.952-.154 4.493.17 5.084 1.108.878.977.778 2.56.252 2.779-.565.236-1.869-1.072-2.763-.971-.504.058-1.485.704-2.066.636-.5-.058-.826-1.127-1.262-1.44-.397-.284-2.644.207-3.222.468-.704.317-2.3 2.58-2.343 3.393-.052.945 1.875 2.853 2.653 3.005.816.158 2.262-.587 2.773-.236.61.423 1.278 7.588 2.61 7.598.846.007 3.157-3.15 3.519-3.764.506-.864.196-2.243.374-2.717.223-.594 1.627-1.375 1.682-2.005.051-.564-1.84-2.188-1.372-2.524.372-.265 2.367.691 3.015.29.554-.34.574-2.061 1.285-3.351a.769.769 0 0 1 .672-.4c.67 0 1.411.447 2.221 3.731.174.656 1.337-.852 1.337-.852l-1.13-3.668v-.001ZM49.457 18.733c-.388-.1-.836.9-.965 1.278-.116.348-.346 1.342 0 1.468.42.152 1.007-.945 1.133-1.371.097-.333.167-1.288-.168-1.372M29.404 15.488c.571 1.752 2.805 1.23 3.193 2.402.435 1.32-1.063 2.578-.132 4.58-1.918 1.881-4.061-2.938-4.061-2.938l1-4.041v-.003Z" fill="#FEE14A"/></g><path d="M26.98 13.708c0-7.11-5.763-12.873-12.872-12.873-7.11 0-12.873 5.763-12.873 12.873 0 7.11 5.763 12.872 12.873 12.872 7.109 0 12.872-5.763 12.872-12.872Z" fill="#FF5600"/><path d="M16.006 8.044h-1.303c-2.233 0-3.35 1.117-3.35 2.792 0 1.861.745 2.792 2.42 3.908l1.303.93-3.723 5.77H8.375l3.537-5.21c-2.048-1.49-3.164-2.792-3.164-5.212 0-2.978 2.047-5.025 5.955-5.025h3.909v15.447h-2.606v-13.4ZM63.014 3.504h13.395V23.83h-3.54V6.253h-6.317V23.83h-3.538V3.504ZM81.194 28.364c-.683 0-1.17-.088-1.463-.263l-.438-.234V25.03c.195.195.429.341.701.439.274.097.566.146.878.146.487 0 .877-.107 1.17-.322.292-.195.536-.468.731-.819L77.713 9.12h3.656l3.246 11.055L87.862 9.12h3.363l-4.592 13.921c-.487 1.502-1.111 2.76-1.871 3.773-.76 1.033-1.95 1.55-3.568 1.55ZM103.623 11.87h-4.094v11.96h-3.48V11.87h-4.095V9.12h11.669v2.75ZM115.914 22.835c-.507.351-1.17.653-1.989.907-.819.253-1.784.38-2.895.38-2.203 0-3.919-.624-5.147-1.872-1.209-1.267-1.814-3.178-1.814-5.732 0-1.111.127-2.135.38-3.07.254-.956.634-1.765 1.141-2.428a5.616 5.616 0 0 1 1.96-1.609c.799-.39 1.725-.585 2.778-.585 1.735 0 3.12.536 4.153 1.609 1.053 1.072 1.579 2.885 1.579 5.44v1.842h-8.393c.078 1.228.389 2.145.935 2.75.546.604 1.453.906 2.72.906.839 0 1.677-.137 2.515-.41.839-.273 1.531-.594 2.077-.965v2.837Zm-5.645-11.26c-.838 0-1.472.303-1.901.907-.428.604-.662 1.492-.701 2.661h4.854v-.292c0-.917-.165-1.687-.497-2.31-.312-.644-.897-.966-1.755-.966ZM118.392 23.83V9.12h3.48v11.962h3.802V9.12h3.48v11.962h3.802V9.12h3.481v14.71h-18.045ZM150.617 22.835c-.507.351-1.17.653-1.989.907-.818.253-1.784.38-2.895.38-2.203 0-3.919-.624-5.147-1.872-1.209-1.267-1.814-3.178-1.814-5.732 0-1.111.127-2.135.381-3.07.253-.956.633-1.765 1.14-2.428a5.616 5.616 0 0 1 1.96-1.609c.799-.39 1.725-.585 2.778-.585 1.735 0 3.12.536 4.153 1.609 1.053 1.072 1.579 2.885 1.579 5.44v1.842h-8.393c.078 1.228.39 2.145.936 2.75.546.604 1.452.906 2.719.906.839 0 1.677-.137 2.516-.41.838-.273 1.53-.594 2.076-.965v2.837Zm-5.644-11.26c-.839 0-1.472.303-1.901.907-.429.604-.663 1.492-.702 2.661h4.855v-.292c0-.917-.166-1.687-.498-2.31-.312-.644-.896-.966-1.754-.966ZM159.527 24.122c-2.321 0-4.056-.663-5.206-1.989-1.131-1.326-1.696-3.207-1.696-5.644 0-1.112.146-2.135.438-3.071.293-.956.712-1.765 1.258-2.428a5.657 5.657 0 0 1 2.106-1.579c.857-.39 1.842-.585 2.953-.585.858 0 1.599.068 2.223.205.643.136 1.15.302 1.521.497v2.954c-.351-.214-.838-.42-1.462-.614a6.163 6.163 0 0 0-1.901-.293c-1.131 0-2.009.41-2.633 1.229-.604.819-.906 2.018-.906 3.597 0 1.52.273 2.73.819 3.627.565.896 1.462 1.345 2.69 1.345.722 0 1.355-.088 1.901-.264a5.063 5.063 0 0 0 1.492-.73v2.836a4.161 4.161 0 0 1-1.521.673c-.585.156-1.277.234-2.076.234ZM176.11 11.868h-4.095V23.83h-3.48V11.868h-4.095V9.12h11.67v2.75ZM183.961 23.83h-5.791V9.12h5.849c1.599 0 2.808.311 3.627.935.838.624 1.257 1.56 1.257 2.808 0 .877-.234 1.598-.702 2.164-.467.546-1.092.926-1.871 1.14.974.176 1.735.546 2.28 1.112.566.565.849 1.326.849 2.281 0 1.404-.487 2.466-1.463 3.188-.974.721-2.319 1.082-4.035 1.082Zm-.439-12.079h-1.872v3.276h1.755c.663 0 1.17-.146 1.52-.439.372-.292.557-.692.557-1.199 0-.546-.176-.955-.527-1.228-.331-.273-.809-.41-1.433-.41Zm.059 5.82h-1.931v3.627h1.931c.701 0 1.257-.146 1.667-.439.409-.292.614-.77.614-1.433 0-.604-.195-1.043-.585-1.316-.39-.293-.956-.439-1.696-.439ZM191.794 9.12h3.392v9.096l5.381-9.096h3.012v14.71h-3.392v-9.095l-5.381 9.096h-3.012V9.12ZM205.477 23.83l3.305-5.557c-.936-.312-1.658-.819-2.164-1.52-.507-.722-.761-1.638-.761-2.75 0-1.579.546-2.788 1.638-3.626 1.092-.839 2.486-1.258 4.183-1.258H217v14.71h-3.48v-4.796h-1.667l-2.807 4.797h-3.569Zm6.463-11.962c-.76 0-1.374.176-1.842.527-.468.35-.702.926-.702 1.725 0 .839.214 1.443.643 1.814.429.37 1.033.555 1.814.555h1.667v-4.62h-1.58Z" fill="#fff"/></svg>