<svg width="8" height="7" viewBox="0 0 8 7" fill="none" xmlns="http://www.w3.org/2000/svg">
<path fill-rule="evenodd" clip-rule="evenodd" d="M6.97394 6.61245C7.24853 6.33786 7.24853 5.89267 6.97394 5.61808L4.98523 3.62938L6.97345 1.64116C7.24803 1.36658 7.24803 0.921384 6.97345 0.646798C6.69886 0.372211 6.25367 0.372211 5.97908 0.646798L3.99086 2.63501L2.00211 0.646252C1.72752 0.371666 1.28233 0.371666 1.00774 0.646252C0.733153 0.920839 0.733153 1.36603 1.00774 1.64062L2.9965 3.62938L1.00725 5.61863C0.732659 5.89322 0.732659 6.33841 1.00725 6.613C1.28183 6.88758 1.72703 6.88758 2.00161 6.613L3.99086 4.62374L5.97957 6.61245C6.25416 6.88704 6.69935 6.88704 6.97394 6.61245Z" fill="white"></path>
</svg>
