<svg width="132" height="24" fill="none" xmlns="http://www.w3.org/2000/svg"><g clip-path="url('#a')"><path d="M131.818 17.799H32.296v1.488h99.522V17.8Z" fill="url('#b')"/><path d="M11.809 23.112c6.137 0 11.112-4.975 11.112-11.112C22.92 5.863 17.946.888 11.809.888 5.672.888.697 5.863.697 12c0 6.137 4.975 11.112 11.112 11.112Z" fill="#3A3A3C"/><path d="M75.488 3.984a1.155 1.155 0 0 1-.422 1.59 1.167 1.167 0 0 1-1.592-.427 1.158 1.158 0 0 1 .004-1.163h2.01ZM35.534 10.72a4.58 4.58 0 0 1-1.959.549c-1.47 0-2.486-.774-2.486-2.479V6.084h1.637V8.31c0 .916.36 1.434 1.195 1.434a2.791 2.791 0 0 0 1.621-.475V6.088h1.63v7.384h-1.63l-.008-2.752Zm3.406-4.64h5.597v1.446H40.57v1.512h3.491v1.446h-3.49v1.546h4.018v1.442h-5.64L38.94 6.08Zm7.09 0h3.026c1.77 0 2.836 1.048 2.836 2.575 0 1.709-1.33 2.594-2.995 2.594h-1.23v2.216H46.04L46.03 6.08Zm2.93 3.731c.814 0 1.291-.487 1.291-1.16 0-.727-.508-1.117-1.323-1.117h-1.26V9.81h1.291Zm4.146-3.727h1.652v2.923h3.003v-2.92h1.613v7.385h-1.633v-2.961h-2.983v2.961h-1.652V6.084Zm8.045 0h1.63v2.513h1.574c1.715 0 2.715.947 2.715 2.393 0 1.52-1.078 2.479-2.816 2.479h-3.103V6.084Zm1.63 3.905v2.014h1.45c.803 0 1.218-.348 1.218-1.032 0-.623-.415-.982-1.23-.982H62.78Zm5.112-3.905h1.629v7.385h-1.63V6.084Zm9.786 7.385h-1.586V8.65l-3.259 4.821h-1.551V6.088h1.61v4.844l3.258-4.844h1.512l.016 7.38Zm9.174 0v-1.957l-.982-1.055-2.086 3.015h-1.94l2.933-4.187-2.828-3.197h1.94l2.97 3.452V6.088h1.622V9.54l2.971-3.452h1.94l-2.828 3.197 2.933 4.187h-1.94l-2.095-3.015-.973 1.055v1.96l-1.637-.003Zm7.618-7.385h5.59V7.53h-3.968v1.508h3.49v1.446h-3.49v1.546h4.022v1.442h-5.644V6.084Zm7.091 0h1.757l1.94 3.124 1.939-3.124h1.757v7.385h-1.618V8.65l-2.086 3.151h-.043l-2.063-3.12v4.79h-1.598l.015-7.388Zm13.483 4.64a4.58 4.58 0 0 1-1.94.549c-1.469 0-2.486-.774-2.486-2.479V6.088h1.629v2.227c0 .916.361 1.434 1.199 1.434a2.783 2.783 0 0 0 1.618-.475V6.088h1.629v7.384h-1.629l-.02-2.748Zm8.328-4.64h1.769l-2.847 5.71c-.648 1.284-1.389 1.79-2.425 1.79a3.114 3.114 0 0 1-1.598-.429l.637-1.194c.263.162.566.247.876.243a1.1 1.1 0 0 0 .931-.591l-2.964-5.53h1.823l2.01 3.906 1.788-3.905Zm4.476 7.385h-1.629V6.088h5.175v1.469h-3.546v5.912Z" fill="#000"/><path d="M13.599 1.026a11.181 11.181 0 0 0-6.412.878 11.136 11.136 0 0 0-4.842 4.28 11.084 11.084 0 0 0 .474 12.338 11.145 11.145 0 0 0 5.157 3.899c2.067.762 4.315.897 6.46.386a11.155 11.155 0 0 0 5.587-3.256 11.098 11.098 0 0 0 2.83-5.8 11.076 11.076 0 0 0-1.983-8.274 11.135 11.135 0 0 0-3.191-2.946 11.17 11.17 0 0 0-4.08-1.505Zm-11.47 9.426A9.764 9.764 0 0 1 3.765 6.4a9.802 9.802 0 0 1 3.243-2.938 6.22 6.22 0 0 0-1.602 3.611 6.094 6.094 0 0 0 1.8 4.988c1.912 1.86 4.891 3.035 7.614 1.705 2.638-1.284 2.918-5.189.3-7.037-1.638-1.16-4.35-1.14-4.978.56a2.136 2.136 0 0 0 1.009 2.49c1.718 1.01 3.421-.433 2.444-1.79.86.29 1.637 1.443 1.249 2.784-.582 2.018-3.235 2.738-5.481 1.326-2.937-1.84-2.82-5.683-1.125-7.555 2.688-2.977 6.982-2.397 9.65-.305 3.88 3.035 3.798 7.98 1.428 10.501a6.4 6.4 0 0 1-4.93 1.933c-3.627-.131-5.908-3.14-8.177-4.307-1.245-.653-3.184-.932-4.166.255a9.534 9.534 0 0 1 .086-2.169Zm1.64 7.15c2.6.85 3.654-.484 3.15-1.462 1.183.993 1.296 3.843 3.336 5.536a9.842 9.842 0 0 1-3.658-1.38A9.808 9.808 0 0 1 3.769 17.6Zm11.85 3.444a1.355 1.355 0 0 0 .105-1.11 1.224 1.224 0 0 0-1.57-.684c-.412.112-.82.522-.687.955.132.433.737.58 1.245.29.054.495-.407 1.013-1.129 1.11-1.129.15-2.2-.654-3.153-1.933-.734-.967-1.277-2.24-1.913-3.14-.555-.773-1.644-2.18-3.014-1.964a.936.936 0 0 0-.834.773.66.66 0 0 0 .633.623.659.659 0 0 0 .62-.197.69.69 0 0 1-.236.97c-1.137.622-2.937-.414-3.204-1.933-.253-1.47 1.283-2.32 3.052-1.6 3.181 1.31 4.442 4.886 9.054 5.226a7.063 7.063 0 0 0 3.82-.787 7.033 7.033 0 0 0 2.813-2.692 9.804 9.804 0 0 1-2.126 3.663 9.842 9.842 0 0 1-3.475 2.43Z" fill="url('#c')"/></g><defs><linearGradient id="b" x1="32.294" y1="18.538" x2="131.806" y2="18.538" gradientUnits="userSpaceOnUse"><stop stop-color="#F9DCBC"/><stop offset=".178" stop-color="#FEF9E9"/><stop offset=".443" stop-color="#FADEB9"/><stop offset=".528" stop-color="#F5D6AC"/><stop offset=".575" stop-color="#E6BA93"/><stop offset=".624" stop-color="#DCAF82"/><stop offset=".674" stop-color="#D2A47A"/><stop offset=".7" stop-color="#D9AD7A"/><stop offset=".818" stop-color="#EED6B5"/><stop offset=".957" stop-color="#FCEBD5"/></linearGradient><linearGradient id="c" x1=".697" y1=".888" x2="29.53" y2="8.35" gradientUnits="userSpaceOnUse"><stop stop-color="#FFBE77"/><stop offset=".188" stop-color="#FFECD2"/><stop offset=".443" stop-color="#FADEB9"/><stop offset=".656" stop-color="#D2A47A"/><stop offset=".957" stop-color="#FCEBD5"/></linearGradient><clipPath id="a"><path fill="#fff" transform="translate(.697 .888)" d="M0 0h131.121v22.224H0z"/></clipPath></defs></svg>