<svg width="146" height="20" viewBox="0 0 146 20" fill="none" xmlns="http://www.w3.org/2000/svg">
<g clip-path="url('#clip0_511_5061')">
<mask id="mask0_511_5061" style="mask-type: luminance" maskUnits="userSpaceOnUse" x="19" y="1" width="19" height="18">
<path d="M37.1006 9.90808C37.1006 5.15763 33.2496 1.30664 28.4991 1.30664C23.7487 1.30664 19.8977 5.15763 19.8977 9.90808C19.8977 14.6585 23.7487 18.5095 28.4991 18.5095C33.2496 18.5095 37.1006 14.6585 37.1006 9.90808Z" fill="white"></path>
</mask>
<g mask="url('#mask0_511_5061')">
<path d="M37.1021 9.90808C37.1021 5.15664 33.2504 1.30664 28.5011 1.30664C23.7518 1.30664 19.8997 5.15879 19.8997 9.90808C19.8997 14.6574 23.7497 18.5095 28.5011 18.5095C33.2526 18.5095 37.1021 14.6574 37.1021 9.90808Z" fill="#7F5FFF"></path>
<path d="M37.3152 5.81563C35.9094 3.95976 32.1533 1.78001 28.7392 2.50056C27.8278 2.69308 27.9355 3.14143 27.6569 3.5661C27.2705 4.15486 26.1218 4.39691 26.0383 4.66826C25.9198 5.05847 26.4858 5.72734 26.8092 5.84793C27.3248 6.03786 27.7749 5.19844 28.4157 5.09508C29.0519 4.99171 31.4181 5.20792 31.8126 5.83501C32.3997 6.48838 32.3325 7.5453 31.981 7.69217C31.6037 7.84981 30.7324 6.97593 30.1346 7.04311C29.7983 7.08187 29.1423 7.51343 28.7542 7.46821C28.42 7.42945 28.2021 6.71535 27.911 6.50646C27.6457 6.31653 26.1447 6.64429 25.7583 6.81915C25.288 7.03063 24.2208 8.54234 24.1923 9.08588C24.1579 9.71777 25.4452 10.9926 25.9651 11.0938C26.5108 11.1993 27.4768 10.7015 27.8179 10.9362C28.2253 11.2187 28.672 16.0067 29.5627 16.0132C30.1277 16.0175 31.6718 13.9084 31.9134 13.4984C32.252 12.9204 32.0448 11.9996 32.1636 11.6826C32.3123 11.2859 33.2508 10.7639 33.2874 10.3431C33.3218 9.9658 32.0581 8.88093 32.3708 8.65651C32.6189 8.47948 33.9519 9.11817 34.3852 8.85074C34.7552 8.62249 34.7689 7.47295 35.244 6.6107C35.334 6.44703 35.5058 6.34323 35.6928 6.34323C36.1412 6.34323 36.636 6.64257 37.1769 8.83698C37.2933 9.27495 38.0702 8.26715 38.0702 8.26715L37.3148 5.81649L37.3152 5.81563Z" fill="#FEE14A"></path>
<path d="M33.3513 13.0418C33.0924 12.9751 32.7927 13.6435 32.7065 13.8959C32.629 14.1288 32.4757 14.793 32.7065 14.877C32.9869 14.9782 33.3793 14.2452 33.4637 13.9605C33.5283 13.7382 33.5757 13.0999 33.3517 13.044" fill="#FEE14A"></path>
<path d="M19.9524 10.8744C20.334 12.0455 21.8268 11.6962 22.0856 12.4792C22.3768 13.3612 21.3758 14.2024 21.9973 15.5398C20.716 16.7969 19.2839 13.5766 19.2839 13.5766L19.9524 10.8761V10.8744Z" fill="#FEE14A"></path>
</g>
</g>
<path d="M18.333 9.68347C18.333 4.93302 14.482 1.08203 9.73156 1.08203C4.98112 1.08203 1.13013 4.93302 1.13013 9.68347C1.13013 14.4339 4.98112 18.2849 9.73156 18.2849C14.482 18.2849 18.333 14.4339 18.333 9.68347Z" fill="#FF5600"></path>
<path d="M11.0003 5.90017H10.1298C8.63752 5.90017 7.89134 6.64632 7.89134 7.76554C7.89134 9.00911 8.38879 9.63091 9.50799 10.377L10.3785 10.9989L7.89134 14.8539H5.90161L8.26438 11.3719C6.89648 10.377 6.15033 9.50659 6.15033 7.8899C6.15033 5.90017 7.51827 4.53223 10.1298 4.53223H12.7413V14.8539H11.0003V5.90017Z" fill="white"></path>
<path d="M42.4106 2.86523H51.3609V16.4469H48.9963V4.70219H44.7752V16.4469H42.4106V2.86523Z" fill="black"></path>
<path d="M54.5586 19.4758C54.1026 19.4758 53.777 19.4172 53.5815 19.3C53.3862 19.1957 53.2884 19.1436 53.2884 19.1436V17.248C53.4187 17.3783 53.5751 17.4761 53.7574 17.5412C53.9398 17.6064 54.1352 17.6389 54.3437 17.6389C54.6693 17.6389 54.93 17.5672 55.1254 17.4239C55.3208 17.2937 55.4837 17.1113 55.614 16.8768L52.2332 6.61719H54.6759L56.8451 14.0041L59.0142 6.61719H61.2616L58.1934 15.9192C57.8678 16.9224 57.4508 17.7627 56.9428 18.4401C56.4347 19.1306 55.64 19.4758 54.5586 19.4758Z" fill="black"></path>
<path d="M69.5458 8.45411H66.8099V16.4468H64.4844V8.45411H61.7485V6.61719H69.5458V8.45411Z" fill="black"></path>
<path d="M77.7583 15.7825C77.4195 16.017 76.9766 16.219 76.4294 16.3883C75.8822 16.5577 75.2373 16.6424 74.4947 16.6424C73.0225 16.6424 71.8761 16.2255 71.0553 15.3917C70.2476 14.5449 69.8438 13.2681 69.8438 11.5614C69.8438 10.8188 69.9284 10.1349 70.0978 9.50953C70.2671 8.87117 70.5212 8.33049 70.8599 7.88753C71.2117 7.43154 71.6481 7.07327 72.1692 6.81271C72.7034 6.55215 73.3222 6.42188 74.0257 6.42188C75.1852 6.42188 76.1102 6.78015 76.8007 7.49668C77.5042 8.21323 77.8559 9.42486 77.8559 11.1315V12.3627H72.2474C72.2995 13.1834 72.5079 13.7957 72.8727 14.1996C73.2375 14.6035 73.8433 14.8054 74.6902 14.8054C75.2503 14.8054 75.8106 14.7142 76.3707 14.5318C76.931 14.3494 77.3935 14.1345 77.7583 13.8869V15.7825ZM73.9866 8.25883C73.4264 8.25883 73.0031 8.46077 72.7164 8.86462C72.4298 9.26846 72.2735 9.8613 72.2474 10.643H75.4914V10.4475C75.4914 9.83518 75.3806 9.32062 75.1591 8.90367C74.9507 8.47379 74.5599 8.25883 73.9866 8.25883Z" fill="black"></path>
<path d="M79.4138 16.4468V6.61719H81.7394V14.6098H84.2798V6.61719H86.6053V14.6098H89.1458V6.61719H91.4713V16.4468H79.4138Z" fill="black"></path>
<path d="M100.947 15.7825C100.608 16.017 100.165 16.219 99.6179 16.3883C99.0707 16.5577 98.4259 16.6424 97.6833 16.6424C96.2111 16.6424 95.0647 16.2255 94.2439 15.3917C93.4361 14.5449 93.0322 13.2681 93.0322 11.5614C93.0322 10.8188 93.1169 10.1349 93.2863 9.50953C93.4556 8.87117 93.7097 8.33049 94.0484 7.88753C94.4002 7.43154 94.8366 7.07327 95.3577 6.81271C95.8919 6.55215 96.5107 6.42188 97.2143 6.42188C98.3737 6.42188 99.2988 6.78015 99.9892 7.49668C100.693 8.21323 101.045 9.42486 101.045 11.1315V12.3627H95.4359C95.4881 13.1834 95.6965 13.7957 96.0613 14.1996C96.426 14.6035 97.0318 14.8054 97.8786 14.8054C98.4389 14.8054 98.9991 14.7142 99.5593 14.5318C100.119 14.3494 100.582 14.1345 100.947 13.8869V15.7825ZM97.1752 8.25883C96.615 8.25883 96.1915 8.46077 95.9049 8.86462C95.6183 9.26846 95.4619 9.8613 95.4359 10.643H98.6799V10.4475C98.6799 9.83518 98.5692 9.32062 98.3477 8.90367C98.1392 8.47379 97.7484 8.25883 97.1752 8.25883Z" fill="black"></path>
<path d="M106.9 16.6424C105.349 16.6424 104.19 16.1994 103.421 15.3135C102.666 14.4276 102.288 13.1704 102.288 11.5419C102.288 10.7993 102.386 10.1153 102.581 9.48996C102.776 8.8516 103.056 8.31092 103.421 7.86798C103.799 7.41201 104.268 7.06024 104.828 6.81271C105.402 6.55215 106.059 6.42188 106.802 6.42188C107.375 6.42188 107.87 6.46748 108.287 6.55867C108.717 6.64986 109.056 6.7606 109.303 6.89088V8.86462C109.069 8.72132 108.743 8.58449 108.326 8.45422C107.922 8.32394 107.499 8.25883 107.056 8.25883C106.301 8.25883 105.714 8.53242 105.297 9.07956C104.893 9.62679 104.692 10.428 104.692 11.4832C104.692 12.4994 104.874 13.3072 105.239 13.9065C105.616 14.5058 106.216 14.8054 107.037 14.8054C107.519 14.8054 107.942 14.7468 108.307 14.6295C108.685 14.5123 109.017 14.3494 109.303 14.141V16.0365C109.017 16.245 108.678 16.3948 108.287 16.4861C107.896 16.5902 107.434 16.6424 106.9 16.6424Z" fill="black"></path>
<path d="M117.981 8.45411H115.245V16.4468H112.919V8.45411H110.183V6.61719H117.981V8.45411Z" fill="black"></path>
<path d="M123.227 16.4468H119.357V6.61719H123.266C124.334 6.61719 125.142 6.82564 125.689 7.24253C126.249 7.65943 126.529 8.28477 126.529 9.11859C126.529 9.70479 126.373 10.1868 126.06 10.5646C125.748 10.9294 125.33 11.1835 124.81 11.3268C125.461 11.4441 125.969 11.6916 126.334 12.0694C126.712 12.4472 126.901 12.9553 126.901 13.5937C126.901 14.5317 126.575 15.2417 125.923 15.7238C125.272 16.2058 124.373 16.4468 123.227 16.4468ZM122.934 8.37599H121.683V10.5646H122.855C123.298 10.5646 123.637 10.467 123.871 10.2716C124.119 10.0761 124.243 9.80903 124.243 9.47036C124.243 9.10557 124.126 8.83192 123.891 8.64956C123.67 8.46713 123.351 8.37599 122.934 8.37599ZM122.973 12.2649H121.683V14.688H122.973C123.441 14.688 123.813 14.5904 124.087 14.3949C124.36 14.1995 124.497 13.8803 124.497 13.4374C124.497 13.0335 124.367 12.7404 124.106 12.5579C123.846 12.3626 123.468 12.2649 122.973 12.2649Z" fill="black"></path>
<path d="M128.46 6.61719H130.727V12.6948L134.322 6.61719H136.335V16.4468H134.069V10.3693L130.473 16.4468H128.46V6.61719Z" fill="black"></path>
<path d="M137.604 16.4468L139.812 12.7338C139.187 12.5254 138.704 12.1867 138.366 11.7176C138.027 11.2356 137.858 10.6233 137.858 9.88068C137.858 8.82545 138.223 8.01769 138.952 7.45749C139.682 6.89729 140.613 6.61719 141.747 6.61719H145.303V16.4468H142.978V13.2419H141.864L139.988 16.4468H137.604ZM141.922 8.45411C141.415 8.45411 141.004 8.57136 140.692 8.80588C140.379 9.04039 140.222 9.42475 140.222 9.95888C140.222 10.519 140.366 10.923 140.652 11.1705C140.939 11.418 141.343 11.5418 141.864 11.5418H142.978V8.45411H141.922Z" fill="black"></path>
<defs>
<clipPath id="clip0_511_5061">
<rect width="18.7668" height="18.7668" fill="white" transform="translate(19.115 0.524414)"></rect>
</clipPath>
</defs>
</svg>
