<svg width="197" height="34" fill="none" xmlns="http://www.w3.org/2000/svg"><g clip-path="url('#a')"><path d="M196.232 25.308H47.29v2.227h148.942v-2.227Z" fill="url('#b')"/><path d="M16.63 33.26c9.184 0 16.63-7.446 16.63-16.63C33.26 7.445 25.814 0 16.63 0 7.445 0 0 7.445 0 16.63c0 9.184 7.445 16.63 16.63 16.63Z" fill="#3A3A3C"/><path d="M111.93 4.634a1.73 1.73 0 0 1-.631 2.378 1.744 1.744 0 0 1-2.614-1.51c.001-.305.083-.604.238-.868h3.007Zm-59.793 10.08c-.903.49-1.905.77-2.931.821-2.2 0-3.722-1.157-3.722-3.709v-4.05h2.45v3.333c0 1.371.54 2.146 1.788 2.146a4.177 4.177 0 0 0 2.427-.711V7.782h2.438v11.051h-2.438l-.012-4.12Zm5.097-6.944h8.377v2.164h-5.939v2.263h5.225v2.164h-5.225v2.314h6.014v2.158h-8.44L57.234 7.77Zm10.612 0h4.528c2.647 0 4.243 1.568 4.243 3.854 0 2.557-1.99 3.882-4.481 3.882h-1.84v3.316h-2.439L67.846 7.77Zm4.383 5.584c1.219 0 1.933-.73 1.933-1.736 0-1.088-.76-1.672-1.98-1.672h-1.886v3.408h1.933Zm6.205-5.578h2.473v4.374H85.4V7.782h2.415v11.051h-2.444v-4.432h-4.464v4.432h-2.473V7.776Zm12.04 0h2.438v3.76h2.357c2.566 0 4.064 1.418 4.064 3.583 0 2.274-1.614 3.709-4.215 3.709h-4.644V7.776Zm2.438 5.844v3.014h2.171c1.202 0 1.823-.52 1.823-1.544 0-.932-.62-1.47-1.84-1.47h-2.154Zm7.652-5.844h2.438v11.052h-2.438V7.776Zm14.646 11.052h-2.374v-7.21l-4.877 7.215h-2.322V7.782h2.409v7.25l4.876-7.25h2.264l.024 11.046Zm13.729 0V15.9l-1.469-1.58-3.123 4.513h-2.902l4.389-6.266-4.233-4.785h2.902l4.447 5.167V7.782h2.427v5.167l4.447-5.167h2.902l-4.231 4.785 4.389 6.266h-2.904l-3.134-4.513-1.457 1.58v2.933l-2.45-.005Zm11.402-11.052h8.364V9.94h-5.938v2.257h5.224v2.164h-5.224v2.314h6.019v2.158h-8.445V7.776Zm10.612 0h2.629l2.903 4.675 2.902-4.675h2.63v11.052h-2.421v-7.21l-3.123 4.716h-.063l-3.089-4.67v7.17h-2.392l.024-11.058Zm20.178 6.943a6.851 6.851 0 0 1-2.903.822c-2.2 0-3.721-1.157-3.721-3.709v-4.05h2.438v3.332c0 1.372.54 2.147 1.794 2.147.861.02 1.707-.23 2.421-.711V7.782h2.438v11.051h-2.438l-.029-4.114Zm12.464-6.943h2.646l-4.26 8.546c-.969 1.921-2.079 2.68-3.629 2.68a4.655 4.655 0 0 1-2.391-.643l.952-1.788c.394.243.848.37 1.312.364a1.65 1.65 0 0 0 1.393-.885l-4.436-8.274h2.729l3.008 5.844 2.676-5.844Zm6.698 11.052h-2.438V7.782h7.744V9.98h-5.306v8.848Z" fill="#fff"/><path d="M19.309.207a16.733 16.733 0 0 0-9.596 1.314 16.666 16.666 0 0 0-7.246 6.406 16.588 16.588 0 0 0 .71 18.464 16.679 16.679 0 0 0 7.716 5.835 16.736 16.736 0 0 0 9.668.578c3.21-.764 6.12-2.46 8.362-4.872a16.608 16.608 0 0 0 4.237-8.682 16.577 16.577 0 0 0-2.968-12.381 16.664 16.664 0 0 0-4.777-4.41A16.719 16.719 0 0 0 19.309.207ZM2.143 14.314a14.613 14.613 0 0 1 2.45-6.064 14.67 14.67 0 0 1 4.853-4.398 9.307 9.307 0 0 0-2.398 5.405 9.12 9.12 0 0 0 2.694 7.464c2.862 2.783 7.32 4.543 11.395 2.552 3.948-1.921 4.366-7.765.447-10.531-2.45-1.736-6.507-1.707-7.448.839-.212.7-.178 1.45.096 2.128a3.209 3.209 0 0 0 1.414 1.598c2.571 1.51 5.12-.648 3.657-2.679 1.288.434 2.45 2.159 1.869 4.166-.87 3.02-4.841 4.097-8.203 1.985-4.394-2.754-4.22-8.506-1.683-11.306 4.023-4.456 10.45-3.588 14.443-.458 5.805 4.543 5.683 11.944 2.136 15.716a9.576 9.576 0 0 1-7.378 2.893c-5.428-.197-8.841-4.698-12.237-6.446-1.864-.977-4.766-1.394-6.235.382a14.27 14.27 0 0 1 .128-3.246Zm2.455 10.699c3.89 1.273 5.469-.723 4.714-2.187 1.77 1.487 1.939 5.751 4.993 8.286a14.728 14.728 0 0 1-5.475-2.067 14.68 14.68 0 0 1-4.232-4.032Zm17.735 5.156a2.026 2.026 0 0 0 .157-1.661 1.84 1.84 0 0 0-2.351-1.024c-.616.168-1.225.78-1.028 1.429.198.648 1.103.868 1.864.434.08.74-.61 1.516-1.69 1.66-1.689.226-3.291-.977-4.72-2.893-1.096-1.446-1.91-3.35-2.861-4.698-.83-1.157-2.462-3.264-4.51-2.94a1.4 1.4 0 0 0-1.249 1.158.988.988 0 0 0 .946.931.985.985 0 0 0 .93-.295 1.033 1.033 0 0 1-.355 1.453c-1.7.931-4.394-.62-4.795-2.893-.377-2.2 1.922-3.472 4.569-2.396 4.76 1.961 6.647 7.314 13.549 7.823 1.978.151 3.96-.257 5.716-1.179a10.527 10.527 0 0 0 4.21-4.029 14.67 14.67 0 0 1-3.18 5.483 14.728 14.728 0 0 1-5.202 3.637Z" fill="url('#c')"/></g><defs><linearGradient id="b" x1="47.287" y1="26.414" x2="196.214" y2="26.414" gradientUnits="userSpaceOnUse"><stop stop-color="#F9DCBC"/><stop offset=".178" stop-color="#FEF9E9"/><stop offset=".443" stop-color="#FADEB9"/><stop offset=".528" stop-color="#F5D6AC"/><stop offset=".575" stop-color="#E6BA93"/><stop offset=".624" stop-color="#DCAF82"/><stop offset=".674" stop-color="#D2A47A"/><stop offset=".7" stop-color="#D9AD7A"/><stop offset=".818" stop-color="#EED6B5"/><stop offset=".957" stop-color="#FCEBD5"/></linearGradient><linearGradient id="c" x1="0" y1="0" x2="43.151" y2="11.168" gradientUnits="userSpaceOnUse"><stop stop-color="#FFBE77"/><stop offset=".188" stop-color="#FFECD2"/><stop offset=".443" stop-color="#FADEB9"/><stop offset=".656" stop-color="#D2A47A"/><stop offset=".957" stop-color="#FCEBD5"/></linearGradient><clipPath id="a"><path fill="#fff" d="M0 0h196.232v33.26H0z"/></clipPath></defs></svg>