<svg width="6" height="5" viewBox="0 0 6 5" fill="none" xmlns="http://www.w3.org/2000/svg">
<path fill-rule="evenodd" clip-rule="evenodd" d="M4.94236 4.62398C5.12584 4.44051 5.12584 4.14303 4.94236 3.95956L3.61339 2.63059L4.94203 1.30195C5.12551 1.11847 5.12551 0.820998 4.94203 0.637521C4.75856 0.454044 4.46108 0.454044 4.27761 0.637521L2.94897 1.96616L1.62022 0.637417C1.43675 0.45394 1.13927 0.45394 0.955796 0.637417C0.772319 0.820894 0.772319 1.11837 0.955796 1.30184L2.28454 2.63059L0.955466 3.95966C0.77199 4.14314 0.771989 4.44061 0.955466 4.62409C1.13894 4.80757 1.43642 4.80757 1.61989 4.62409L2.94897 3.29502L4.27794 4.62398C4.46141 4.80746 4.75889 4.80746 4.94236 4.62398Z" fill="black"></path>
</svg>
