<svg width="132" height="24" viewBox="0 0 132 24" fill="none" xmlns="http://www.w3.org/2000/svg">
<g clip-path="url('#clip0_511_5055')">
<path d="M131.818 17.7988H32.2957V19.2874H131.818V17.7988Z" fill="url('#paint0_linear_511_5055')"></path>
<path d="M11.8087 23.1116C17.9457 23.1116 22.9207 18.1366 22.9207 11.9996C22.9207 5.86268 17.9457 0.887695 11.8087 0.887695C5.67176 0.887695 0.696777 5.86268 0.696777 11.9996C0.696777 18.1366 5.67176 23.1116 11.8087 23.1116Z" fill="#3A3A3C"></path>
<path d="M75.4877 3.98438C75.5907 4.16061 75.6455 4.36091 75.647 4.56505C75.6477 4.76917 75.5944 4.96991 75.4921 5.14697C75.3906 5.32402 75.2432 5.47114 75.0662 5.57344C74.8891 5.67575 74.6877 5.72962 74.4829 5.72962C74.2781 5.72962 74.077 5.67575 73.8997 5.57344C73.7225 5.47114 73.5755 5.32402 73.4736 5.14697C73.3717 4.96991 73.3184 4.76917 73.3192 4.56505C73.32 4.36091 73.3749 4.16061 73.4783 3.98438H75.4877ZM35.5343 10.7196C34.9311 11.047 34.2616 11.2347 33.5755 11.2686C32.1054 11.2686 31.0891 10.4954 31.0891 8.79028V6.08381H32.726V8.31084C32.726 9.2272 33.0867 9.74524 33.9207 9.74524C34.4976 9.75798 35.0641 9.59182 35.5421 9.26973V6.08768H37.1713V13.4724H35.5421L35.5343 10.7196ZM38.9401 6.07995H44.5374V7.52597H40.5692V9.03771H44.0603V10.4837H40.5692V12.0303H44.5878V13.4724H38.9478L38.9401 6.07995ZM46.0308 6.07995H49.0564C50.8252 6.07995 51.8919 7.12774 51.8919 8.65494C51.8919 10.3639 50.5615 11.2493 48.8973 11.2493H47.6678V13.4647H46.0386L46.0308 6.07995ZM48.9594 9.81103C49.774 9.81103 50.2511 9.3238 50.2511 8.65109C50.2511 7.9242 49.7429 7.5337 48.9284 7.5337H47.6678V9.81103H48.9594ZM53.106 6.08381H54.7584V9.00682H57.7607V6.08768H59.3744V13.4724H57.7414V10.5108H54.7584V13.4724H53.106V6.08381ZM61.151 6.08381H62.7801V8.59693H64.355C66.0695 8.59693 67.0702 9.54419 67.0702 10.9902C67.0702 12.5097 65.9919 13.4686 64.2541 13.4686H61.151V6.08381ZM62.7801 9.98882V12.0032H64.2308C65.0338 12.0032 65.4489 11.6552 65.4489 10.9709C65.4489 10.3484 65.0338 9.98882 64.2192 9.98882H62.7801ZM67.8926 6.08381H69.5218V13.4686H67.8926V6.08381ZM77.679 13.4686H76.0929V8.65109L72.8344 13.4724H71.2828V6.08768H72.8925V10.9322L76.1507 6.08768H77.6634L77.679 13.4686ZM86.853 13.4686V11.5122L85.8714 10.4567L83.7846 13.4724H81.8452L84.778 9.28513L81.9497 6.08768H83.8891L86.8604 9.54034V6.08768H88.482V9.54034L91.4533 6.08768H93.3927L90.5651 9.28513L93.4979 13.4724H91.5578L89.4635 10.4567L88.4901 11.5122V13.4724L86.853 13.4686ZM94.4713 6.08381H100.061V7.52983H96.0929V9.03771H99.5836V10.4837H96.0929V12.0303H100.115V13.4724H94.4713V6.08381ZM101.562 6.08381H103.319L105.259 9.20787L107.198 6.08381H108.955V13.4686H107.337V8.65109L105.251 11.8021H105.208L103.145 8.68198V13.4724H101.547L101.562 6.08381ZM115.045 10.7235C114.448 11.0481 113.785 11.2357 113.105 11.2725C111.636 11.2725 110.619 10.4992 110.619 8.79413V6.08768H112.248V8.31469C112.248 9.23106 112.609 9.74909 113.447 9.74909C114.022 9.76184 114.588 9.5956 115.065 9.27358V6.08768H116.694V13.4724H115.065L115.045 10.7235ZM123.373 6.08381H125.142L122.295 11.7944C121.647 13.0781 120.906 13.5846 119.87 13.5846C119.309 13.5883 118.756 13.44 118.272 13.1554L118.909 11.9607C119.172 12.1233 119.475 12.2077 119.785 12.2042C119.979 12.196 120.167 12.137 120.33 12.0331C120.494 11.9293 120.627 11.7842 120.716 11.6127L117.752 6.08381H119.575L121.585 9.98882L123.373 6.08381ZM127.849 13.4686H126.22V6.08768H131.395V7.5569H127.849V13.4686Z" fill="black"></path>
<path d="M13.5986 1.02605C11.4213 0.680347 9.19001 0.985926 7.18691 1.90415C5.18381 2.82238 3.49885 4.31202 2.34508 6.18471C1.19131 8.0574 0.620543 10.2291 0.704953 12.4251C0.789363 14.6211 1.52516 16.7428 2.8193 18.522C4.11344 20.3012 5.9078 21.658 7.97551 22.4208C10.0433 23.1835 12.2914 23.318 14.4358 22.8073C16.5803 22.2966 18.5246 21.1635 20.0229 19.5514C21.5213 17.9392 22.5064 15.9204 22.8538 13.7503C23.0845 12.309 23.0281 10.8366 22.6878 9.41715C22.3474 7.99762 21.7299 6.65884 20.8705 5.47725C20.011 4.29565 18.9265 3.29439 17.6788 2.53066C16.4311 1.76691 15.0446 1.25564 13.5986 1.02605ZM2.12854 10.4523C2.36065 8.99578 2.92014 7.6105 3.76516 6.39998C4.61017 5.18946 5.71885 4.18505 7.00826 3.46187C6.09549 4.46057 5.53322 5.72801 5.40626 7.07305C5.31146 7.98574 5.42402 8.908 5.7356 9.7714C6.04717 10.6349 6.54976 11.4173 7.20609 12.0607C9.11844 13.9204 12.0975 15.0958 14.8205 13.7658C17.4582 12.4821 17.7375 8.57708 15.1191 6.72895C13.4823 5.56904 10.7709 5.58837 10.1424 7.28957C10.0006 7.75702 10.0233 8.25876 10.2067 8.71161C10.3901 9.16446 10.7233 9.54123 11.151 9.77947C12.8694 10.7887 14.5722 9.34648 13.5947 7.98938C14.4559 8.27936 15.2316 9.43152 14.8438 10.7732C14.2619 12.7914 11.6087 13.5106 9.36276 12.0993C6.42642 10.2589 6.54278 6.41577 8.23786 4.54445C10.926 1.56735 15.22 2.1473 17.8887 4.23901C21.7677 7.27411 21.6862 12.2192 19.3162 14.7401C18.6806 15.3946 17.9118 15.9059 17.0613 16.2394C16.2109 16.5728 15.2987 16.7207 14.386 16.6732C10.7592 16.5418 8.4784 13.5338 6.2092 12.3661C4.96405 11.7127 3.02457 11.4343 2.0432 12.6213C1.98899 11.8974 2.01761 11.1697 2.12854 10.4523ZM3.76933 17.6012C6.36823 18.4517 7.42331 17.1179 6.91904 16.1396C8.10212 17.1334 8.2146 19.9828 10.255 21.6763C8.95502 21.4652 7.71092 20.9956 6.59674 20.2956C5.48255 19.5955 4.52102 18.6792 3.76933 17.6012ZM15.6195 21.0461C15.7148 20.879 15.7734 20.6938 15.7915 20.5025C15.8095 20.3112 15.7866 20.1182 15.7243 19.9365C15.6041 19.6404 15.3724 19.4029 15.0788 19.275C14.7852 19.1471 14.4529 19.1388 14.1533 19.2521C13.7421 19.3643 13.3348 19.7741 13.4667 20.2071C13.5986 20.6401 14.2037 20.787 14.7118 20.4971C14.7662 20.9919 14.3045 21.51 13.5831 21.6067C12.4543 21.7575 11.3837 20.9533 10.4295 19.6735C9.69634 18.707 9.15334 17.4349 8.51714 16.534C7.96248 15.7608 6.8725 14.3534 5.50323 14.5699C5.29817 14.5892 5.10525 14.6755 4.95444 14.8153C4.80363 14.9552 4.70338 15.1408 4.66925 15.3432C4.67868 15.5066 4.74855 15.6607 4.86533 15.7756C4.98212 15.8906 5.13754 15.9583 5.30152 15.9657C5.41324 15.9896 5.52928 15.9839 5.63815 15.9494C5.74701 15.9148 5.84492 15.8524 5.92215 15.7685C5.97247 15.8472 6.00631 15.9351 6.02164 16.0272C6.03698 16.1192 6.03349 16.2134 6.01139 16.304C5.98928 16.3946 5.94903 16.4799 5.89303 16.5546C5.83704 16.6294 5.76646 16.6921 5.68554 16.739C4.54901 17.3614 2.74917 16.3253 2.48152 14.8058C2.22939 13.3366 3.76546 12.486 5.53426 13.2051C8.71501 14.5158 9.97569 18.0922 14.5877 18.4324C15.9098 18.5335 17.2337 18.2605 18.4071 17.6449C19.5806 17.0294 20.5558 16.0962 21.2208 14.9527C20.7881 16.3134 20.0628 17.5636 19.0954 18.6161C18.1279 19.6685 16.9418 20.4978 15.6195 21.0461Z" fill="url('#paint1_linear_511_5055')"></path>
</g>
<defs>
<linearGradient id="paint0_linear_511_5055" x1="32.2937" y1="18.5381" x2="131.806" y2="18.5381" gradientUnits="userSpaceOnUse">
<stop stop-color="#F9DCBC"></stop>
<stop offset="0.178" stop-color="#FEF9E9"></stop>
<stop offset="0.4427" stop-color="#FADEB9"></stop>
<stop offset="0.5281" stop-color="#F5D6AC"></stop>
<stop offset="0.5754" stop-color="#E6BA93"></stop>
<stop offset="0.6242" stop-color="#DCAF82"></stop>
<stop offset="0.6737" stop-color="#D2A47A"></stop>
<stop offset="0.6996" stop-color="#D9AD7A"></stop>
<stop offset="0.8182" stop-color="#EED6B5"></stop>
<stop offset="0.9565" stop-color="#FCEBD5"></stop>
</linearGradient>
<linearGradient id="paint1_linear_511_5055" x1="0.696777" y1="0.887695" x2="29.5297" y2="8.35011" gradientUnits="userSpaceOnUse">
<stop stop-color="#FFBE77"></stop>
<stop offset="0.1875" stop-color="#FFECD2"></stop>
<stop offset="0.4427" stop-color="#FADEB9"></stop>
<stop offset="0.65625" stop-color="#D2A47A"></stop>
<stop offset="0.9565" stop-color="#FCEBD5"></stop>
</linearGradient>
<clipPath id="clip0_511_5055">
<rect width="131.121" height="22.2239" fill="white" transform="translate(0.696777 0.887695)"></rect>
</clipPath>
</defs>
</svg>
