<svg width="217" height="29" viewBox="0 0 217 29" fill="none" xmlns="http://www.w3.org/2000/svg">
<mask id="mask0_526_3881" style="mask-type: luminance" maskUnits="userSpaceOnUse" x="29" y="1" width="27" height="26">
<path d="M55.0677 14.0426C55.0677 6.93322 49.3044 1.16992 42.195 1.16992C35.0856 1.16992 29.3223 6.93322 29.3223 14.0426C29.3223 21.152 35.0856 26.9153 42.195 26.9153C49.3044 26.9153 55.0677 21.152 55.0677 14.0426Z" fill="white"></path>
</mask>
<g mask="url('#mask0_526_3881')">
<path d="M55.07 14.0426C55.07 6.93173 49.3056 1.16992 42.1978 1.16992C35.0902 1.16992 29.3252 6.93495 29.3252 14.0426C29.3252 21.1503 35.087 26.9153 42.1978 26.9153C49.3088 26.9153 55.07 21.1503 55.07 14.0426Z" fill="#7F5FFF"></path>
<path d="M55.3889 7.91863C53.285 5.14119 47.6637 1.87902 42.5542 2.95739C41.1903 3.24551 41.3514 3.9165 40.9345 4.55205C40.3563 5.43317 38.6372 5.79542 38.5122 6.20151C38.3349 6.78549 39.1819 7.7865 39.666 7.96698C40.4375 8.25123 41.1111 6.99497 42.0702 6.84028C43.0222 6.68558 46.5635 7.00915 47.1539 7.94764C48.0325 8.92545 47.932 10.5072 47.4059 10.727C46.8413 10.9629 45.5373 9.65511 44.6426 9.75566C44.1393 9.81367 43.1576 10.4595 42.5768 10.3919C42.0766 10.3338 41.7505 9.26514 41.3148 8.95252C40.9178 8.66827 38.6714 9.15879 38.0932 9.42048C37.3893 9.73697 35.7921 11.9994 35.7496 12.8128C35.698 13.7585 37.6246 15.6663 38.4026 15.8179C39.2193 15.9757 40.665 15.2307 41.1756 15.582C41.7853 16.0048 42.4537 23.1704 43.7867 23.1801C44.6323 23.1866 46.9431 20.0301 47.3047 19.4165C47.8114 18.5515 47.5013 17.1734 47.6792 16.699C47.9017 16.1053 49.3062 15.324 49.361 14.6943C49.4124 14.1297 47.5213 12.5061 47.9893 12.1702C48.3605 11.9053 50.3555 12.8611 51.004 12.4609C51.5576 12.1193 51.5782 10.3989 52.2893 9.10852C52.4239 8.86357 52.6811 8.70823 52.9609 8.70823C53.6319 8.70823 54.3724 9.15622 55.182 12.4403C55.3561 13.0958 56.5189 11.5875 56.5189 11.5875L55.3883 7.91992L55.3889 7.91863Z" fill="#FEE14A"></path>
<path d="M49.4566 18.7325C49.0693 18.6327 48.6207 19.6331 48.4918 20.0108C48.3758 20.3594 48.1463 21.3534 48.4918 21.4791C48.9114 21.6305 49.4985 20.5336 49.6249 20.1075C49.7216 19.7749 49.7925 18.8196 49.4573 18.7358" fill="#FEE14A"></path>
<path d="M29.4042 15.4879C29.9753 17.2404 32.2093 16.7177 32.5967 17.8896C33.0325 19.2096 31.5345 20.4685 32.4646 22.4699C30.547 24.3513 28.4038 19.5319 28.4038 19.5319L29.4042 15.4905V15.4879Z" fill="#FEE14A"></path>
</g>
<path d="M26.9803 13.7077C26.9803 6.59826 21.217 0.834961 14.1076 0.834961C6.99817 0.834961 1.23486 6.59826 1.23486 13.7077C1.23486 20.8171 6.99817 26.5804 14.1076 26.5804C21.217 26.5804 26.9803 20.8171 26.9803 13.7077Z" fill="#FF5600"></path>
<path d="M16.006 8.0443H14.7033C12.47 8.0443 11.3533 9.16097 11.3533 10.836C11.3533 12.6971 12.0977 13.6276 13.7727 14.7443L15.0755 15.6749L11.3533 21.4443H8.37549L11.9115 16.2332C9.86438 14.7443 8.74771 13.4416 8.74771 11.0221C8.74771 8.0443 10.7949 5.99707 14.7033 5.99707H18.6116V21.4443H16.006V8.0443Z" fill="white"></path>
<path d="M63.0137 3.50391H76.4085V23.83H72.8696V6.25304H66.5525V23.83H63.0137V3.50391Z" fill="white"></path>
<path d="M81.1936 28.3641C80.5112 28.3641 80.0238 28.2763 79.7313 28.1008C79.4389 27.9448 79.2926 27.8669 79.2926 27.8669V25.03C79.4876 25.225 79.7216 25.3713 79.9945 25.4687C80.2676 25.5662 80.56 25.6149 80.872 25.6149C81.3593 25.6149 81.7494 25.5077 82.0418 25.2932C82.3343 25.0982 82.578 24.8253 82.773 24.4744L77.7134 9.12012H81.3691L84.6155 20.1751L87.8618 9.12012H91.2251L86.6334 23.0413C86.146 24.5426 85.522 25.8002 84.7616 26.814C84.0013 27.8474 82.812 28.3641 81.1936 28.3641Z" fill="white"></path>
<path d="M103.623 11.8692H99.5288V23.8309H96.0486V11.8692H91.9541V9.12012H103.623V11.8692Z" fill="white"></path>
<path d="M115.914 22.8351C115.407 23.1861 114.744 23.4883 113.925 23.7417C113.106 23.9952 112.141 24.1219 111.03 24.1219C108.827 24.1219 107.111 23.4981 105.883 22.2502C104.674 20.9828 104.069 19.0721 104.069 16.5179C104.069 15.4066 104.196 14.383 104.449 13.4471C104.703 12.4917 105.083 11.6826 105.59 11.0196C106.117 10.3372 106.77 9.80104 107.55 9.41109C108.349 9.02114 109.275 8.82617 110.328 8.82617C112.063 8.82617 113.448 9.36235 114.481 10.4347C115.534 11.5071 116.06 13.3204 116.06 15.8744V17.717H107.667C107.745 18.9453 108.056 19.8617 108.602 20.4662C109.148 21.0706 110.055 21.3728 111.322 21.3728C112.161 21.3728 112.999 21.2363 113.837 20.9633C114.676 20.6903 115.368 20.3686 115.914 19.9982V22.8351ZM110.269 11.5753C109.431 11.5753 108.797 11.8775 108.368 12.4819C107.94 13.0863 107.706 13.9735 107.667 15.1433H112.521V14.8508C112.521 13.9344 112.356 13.1644 112.024 12.5404C111.712 11.897 111.127 11.5753 110.269 11.5753Z" fill="white"></path>
<path d="M118.392 23.8309V9.12012H121.872V21.0817H125.674V9.12012H129.154V21.0817H132.956V9.12012H136.437V23.8309H118.392Z" fill="white"></path>
<path d="M150.617 22.8351C150.11 23.1861 149.447 23.4883 148.628 23.7417C147.81 23.9952 146.844 24.1219 145.733 24.1219C143.53 24.1219 141.814 23.4981 140.586 22.2502C139.377 20.9828 138.772 19.0721 138.772 16.5179C138.772 15.4066 138.899 14.383 139.153 13.4471C139.406 12.4917 139.786 11.6826 140.293 11.0196C140.82 10.3372 141.473 9.80104 142.253 9.41109C143.052 9.02114 143.978 8.82617 145.031 8.82617C146.766 8.82617 148.151 9.36235 149.184 10.4347C150.237 11.5071 150.763 13.3204 150.763 15.8744V17.717H142.37C142.448 18.9453 142.76 19.8617 143.306 20.4662C143.852 21.0706 144.758 21.3728 146.025 21.3728C146.864 21.3728 147.702 21.2363 148.541 20.9633C149.379 20.6903 150.071 20.3686 150.617 19.9982V22.8351ZM144.973 11.5753C144.134 11.5753 143.501 11.8775 143.072 12.4819C142.643 13.0863 142.409 13.9735 142.37 15.1433H147.225V14.8508C147.225 13.9344 147.059 13.1644 146.727 12.5404C146.415 11.897 145.831 11.5753 144.973 11.5753Z" fill="white"></path>
<path d="M159.527 24.1219C157.206 24.1219 155.471 23.459 154.321 22.1332C153.19 20.8073 152.625 18.9258 152.625 16.4886C152.625 15.3773 152.771 14.3537 153.063 13.4178C153.356 12.4624 153.775 11.6533 154.321 10.9904C154.886 10.308 155.588 9.78154 156.427 9.41109C157.284 9.02114 158.269 8.82617 159.38 8.82617C160.238 8.82617 160.979 8.89442 161.603 9.03089C162.246 9.16737 162.753 9.3331 163.124 9.52807V12.4819C162.773 12.2675 162.286 12.0627 161.662 11.8677C161.057 11.6728 160.423 11.5753 159.761 11.5753C158.63 11.5753 157.752 11.9848 157.128 12.8036C156.524 13.6226 156.222 14.8217 156.222 16.4009C156.222 17.9217 156.495 19.1306 157.041 20.0275C157.606 20.9244 158.503 21.3728 159.731 21.3728C160.453 21.3728 161.086 21.285 161.632 21.1095C162.198 20.9341 162.695 20.6903 163.124 20.3784V23.2152C162.695 23.5272 162.188 23.7515 161.603 23.888C161.018 24.0439 160.326 24.1219 159.527 24.1219Z" fill="white"></path>
<path d="M176.11 11.8682H172.015V23.8299H168.535V11.8682H164.44V9.11914H176.11V11.8682Z" fill="white"></path>
<path d="M183.961 23.8299H178.17V9.11914H184.019C185.618 9.11914 186.827 9.4311 187.646 10.055C188.484 10.6789 188.903 11.6148 188.903 12.8627C188.903 13.74 188.669 14.4614 188.201 15.0268C187.734 15.5727 187.109 15.953 186.33 16.1675C187.304 16.3429 188.065 16.7134 188.61 17.2788C189.176 17.8442 189.459 18.6046 189.459 19.56C189.459 20.9638 188.972 22.0264 187.996 22.7478C187.022 23.4693 185.677 23.8299 183.961 23.8299ZM183.522 11.7513H181.65V15.0268H183.405C184.068 15.0268 184.575 14.8806 184.925 14.5882C185.297 14.2957 185.482 13.896 185.482 13.3891C185.482 12.8432 185.306 12.4336 184.955 12.1607C184.624 11.8877 184.146 11.7513 183.522 11.7513ZM183.581 17.5713H181.65V21.1978H183.581C184.282 21.1978 184.838 21.0516 185.248 20.7591C185.657 20.4667 185.862 19.989 185.862 19.326C185.862 18.7217 185.667 18.2829 185.277 18.0099C184.887 17.7175 184.321 17.5713 183.581 17.5713Z" fill="white"></path>
<path d="M191.794 9.12012H195.186V18.2157L200.567 9.12012H203.579V23.8309H200.187V14.7354L194.806 23.8309H191.794V9.12012Z" fill="white"></path>
<path d="M205.477 23.8299L208.782 18.2731C207.846 17.9613 207.124 17.4543 206.618 16.7524C206.111 16.0309 205.857 15.1146 205.857 14.0032C205.857 12.424 206.403 11.2151 207.495 10.3767C208.587 9.53833 209.981 9.11914 211.678 9.11914H217V23.8299H213.52V19.0335H211.853L209.046 23.8299H205.477ZM211.94 11.8682C211.18 11.8682 210.566 12.0437 210.098 12.3947C209.63 12.7456 209.396 13.3209 209.396 14.1202C209.396 14.9586 209.61 15.5631 210.039 15.9335C210.468 16.304 211.072 16.4891 211.853 16.4891H213.52V11.8682H211.94Z" fill="white"></path>
</svg>
